<?xml version="1.0" encoding="UTF-8" standalone="no"?>
<!DOCTYPE svg PUBLIC "-//W3C//DTD SVG 1.1//EN"
 "http://www.w3.org/Graphics/SVG/1.1/DTD/svg11.dtd">
<!-- Generated by graphviz version 2.38.0 (20140413.2041)
 -->
<!-- Title: sel_stable Pages: 1 -->
<svg width="555pt" height="203pt"
 viewBox="0.00 0.00 554.60 203.00" xmlns="http://www.w3.org/2000/svg" xmlns:xlink="http://www.w3.org/1999/xlink">
<g id="graph0" class="graph" transform="scale(1 1) rotate(0) translate(4 199)">
<title>sel_stable</title>
<polygon fill="white" stroke="none" points="-4,4 -4,-199 550.6,-199 550.6,4 -4,4"/>
<!-- reset -->
<g id="node1" class="node"><title>reset</title>
<ellipse fill="black" stroke="black" cx="1.8" cy="-123" rx="1.8" ry="1.8"/>
</g>
<!-- mutable -->
<g id="node2" class="node"><title>mutable</title>
<ellipse fill="none" stroke="black" cx="112.6" cy="-123" rx="72" ry="72"/>
<text text-anchor="middle" x="112.6" y="-134.3" font-family="Times,serif" font-size="14.00">SEL_stable</text>
<text text-anchor="middle" x="112.6" y="-119.3" font-family="Times,serif" font-size="14.00">==</text>
<text text-anchor="middle" x="112.6" y="-104.3" font-family="Times,serif" font-size="14.00">0</text>
</g>
<!-- reset&#45;&gt;mutable -->
<g id="edge1" class="edge"><title>reset&#45;&gt;mutable</title>
<path fill="none" stroke="black" d="M4.02187,-123C7.40777,-123 17.5074,-123 30.2455,-123"/>
<polygon fill="black" stroke="black" points="30.4333,-126.5 40.4332,-123 30.4332,-119.5 30.4333,-126.5"/>
</g>
<!-- stable -->
<g id="node3" class="node"><title>stable</title>
<ellipse fill="none" stroke="black" cx="474.6" cy="-72" rx="72" ry="72"/>
<text text-anchor="middle" x="474.6" y="-83.3" font-family="Times,serif" font-size="14.00">SEL_stable</text>
<text text-anchor="middle" x="474.6" y="-68.3" font-family="Times,serif" font-size="14.00">==</text>
<text text-anchor="middle" x="474.6" y="-53.3" font-family="Times,serif" font-size="14.00">1</text>
</g>
<!-- mutable&#45;&gt;stable -->
<g id="edge2" class="edge"><title>mutable&#45;&gt;stable:nw</title>
<path fill="none" stroke="black" d="M180.535,-147.104C248.317,-166.909 351.908,-183.839 415.099,-129.93"/>
<polygon fill="black" stroke="black" points="417.63,-132.357 422.6,-123 412.88,-127.215 417.63,-132.357"/>
<text text-anchor="middle" x="293.6" y="-169.8" font-family="Times,serif" font-size="14.00">CYC_O &amp; STB_O &amp; STALL_O</text>
</g>
<!-- stable&#45;&gt;mutable -->
<g id="edge3" class="edge"><title>stable&#45;&gt;mutable:se</title>
<path fill="none" stroke="black" d="M406.665,-47.8964C338.883,-28.0912 235.292,-11.161 172.101,-65.07"/>
<polygon fill="black" stroke="black" points="169.57,-62.6431 164.6,-72 174.32,-67.7847 169.57,-62.6431"/>
<text text-anchor="middle" x="293.6" y="-48.8" font-family="Times,serif" font-size="14.00">~STALL_O</text>
</g>
</g>
</svg>
