<?xml version="1.0" encoding="UTF-8"?><svg xmlns="http://www.w3.org/2000/svg" width="500" height="182" version="1.0" shape-rendering="geometricPrecision"><defs><style type="text/css">@font-face {
  font-family: sans-serif;
}</style><filter id="shadowBlur" x="0" y="0" width="200%" height="200%"><feOffset in="SourceGraphic" dx="3.0003002" dy="3.0003002" result="offOut"></feOffset><feGaussianBlur in="offOut" stdDeviation="3"></feGaussianBlur></filter></defs><g stroke-width="1" stroke-linecap="square" stroke-linejoin="round"><rect x="0" y="0" width="500" height="182" style="fill: #ffffff"></rect><path stroke="#969696" fill="#969696" filter="url(#shadowBlur)" d="M365.0 35.0 L365.0 147.0 L165.0 147.0 L165.0 35.0 z"></path><path stroke="#000000" stroke-width="1.0" stroke-linecap="round" stroke-linejoin="round" fill="white" d="M365.0 35.0 L365.0 147.0 L165.0 147.0 L165.0 35.0 z"></path><path stroke="none" stroke-width="1.0" stroke-linecap="round" stroke-linejoin="round" fill="#000000" d="M150.0 42.0 L160.0 49.0 L150.0 56.0 z"></path><path stroke="none" stroke-width="1.0" stroke-linecap="round" stroke-linejoin="round" fill="#000000" d="M150.0 70.0 L160.0 77.0 L150.0 84.0 z"></path><path stroke="none" stroke-width="1.0" stroke-linecap="round" stroke-linejoin="round" fill="#000000" d="M400.0 84.0 L410.0 91.0 L400.0 98.0 z"></path><path stroke="none" stroke-width="1.0" stroke-linecap="round" stroke-linejoin="round" fill="#000000" d="M150.0 126.0 L160.0 133.0 L150.0 140.0 z"></path><path stroke="#000000" stroke-width="1.0" stroke-linecap="round" stroke-linejoin="round" fill="none" d="M155.0 49.0 L125.0 49.0 "></path><path stroke="#000000" stroke-width="1.0" stroke-linecap="round" stroke-linejoin="round" fill="none" d="M155.0 77.0 L125.0 77.0 "></path><path stroke="#000000" stroke-width="1.0" stroke-linecap="round" stroke-linejoin="round" fill="none" d="M155.0 133.0 L125.0 133.0 "></path><path stroke="#000000" stroke-width="1.0" stroke-linecap="round" stroke-linejoin="round" fill="none" d="M365.0 91.0 L405.0 91.0 "></path><text x="30" y="82" font-family="sans-serif" font-size="15" stroke="none" fill="#000000"><![CDATA[Multiple]]></text><text x="30" y="96" font-family="sans-serif" font-size="15" stroke="none" fill="#000000"><![CDATA[Initiator]]></text><text x="30" y="110" font-family="sans-serif" font-size="15" stroke="none" fill="#000000"><![CDATA[Busses]]></text><text x="230" y="81" font-family="sans-serif" font-size="12" stroke="none" fill="#000000"><![CDATA[WbXbc]]></text><text x="230" y="96" font-family="sans-serif" font-size="15" stroke="none" fill="#000000"><![CDATA[Arbiter]]></text><text x="420" y="82" font-family="sans-serif" font-size="13" stroke="none" fill="#000000"><![CDATA[One]]></text><text x="420" y="96" font-family="sans-serif" font-size="15" stroke="none" fill="#000000"><![CDATA[Target]]></text><text x="420" y="110" font-family="sans-serif" font-size="15" stroke="none" fill="#000000"><![CDATA[Bus]]></text><text x="136" y="110" font-family="sans-serif" font-size="15" stroke="none" fill="#000000"><![CDATA[...]]></text></g></svg>