<?xml version="1.0" encoding="UTF-8"?><svg xmlns="http://www.w3.org/2000/svg" width="510" height="182" version="1.0" shape-rendering="geometricPrecision"><defs><style type="text/css">@font-face {
  font-family: sans-serif;
}</style><filter id="shadowBlur" x="0" y="0" width="200%" height="200%"><feOffset in="SourceGraphic" dx="3.0003002" dy="3.0003002" result="offOut"></feOffset><feGaussianBlur in="offOut" stdDeviation="3"></feGaussianBlur></filter></defs><g stroke-width="1" stroke-linecap="square" stroke-linejoin="round"><rect x="0" y="0" width="510" height="182" style="fill: #ffffff"></rect><path stroke="#969696" fill="#969696" filter="url(#shadowBlur)" d="M355.0 35.0 L355.0 147.0 L155.0 147.0 L155.0 35.0 z"></path><path stroke="#000000" stroke-width="1.0" stroke-linecap="round" stroke-linejoin="round" fill="white" d="M355.0 35.0 L355.0 147.0 L155.0 147.0 L155.0 35.0 z"></path><path stroke="none" stroke-width="1.0" stroke-linecap="round" stroke-linejoin="round" fill="#000000" d="M390.0 42.0 L400.0 49.0 L390.0 56.0 z"></path><path stroke="none" stroke-width="1.0" stroke-linecap="round" stroke-linejoin="round" fill="#000000" d="M390.0 70.0 L400.0 77.0 L390.0 84.0 z"></path><path stroke="none" stroke-width="1.0" stroke-linecap="round" stroke-linejoin="round" fill="#000000" d="M140.0 84.0 L150.0 91.0 L140.0 98.0 z"></path><path stroke="none" stroke-width="1.0" stroke-linecap="round" stroke-linejoin="round" fill="#000000" d="M390.0 126.0 L400.0 133.0 L390.0 140.0 z"></path><path stroke="#000000" stroke-width="1.0" stroke-linecap="round" stroke-linejoin="round" fill="none" d="M145.0 91.0 L115.0 91.0 "></path><path stroke="#000000" stroke-width="1.0" stroke-linecap="round" stroke-linejoin="round" fill="none" d="M355.0 77.0 L395.0 77.0 "></path><path stroke="#000000" stroke-width="1.0" stroke-linecap="round" stroke-linejoin="round" fill="none" d="M395.0 133.0 L355.0 133.0 "></path><path stroke="#000000" stroke-width="1.0" stroke-linecap="round" stroke-linejoin="round" fill="none" d="M395.0 49.0 L355.0 49.0 "></path><text x="30" y="68" font-family="sans-serif" font-size="15" stroke="none" fill="#000000"><![CDATA[Single]]></text><text x="30" y="82" font-family="sans-serif" font-size="15" stroke="none" fill="#000000"><![CDATA[Initiator]]></text><text x="30" y="96" font-family="sans-serif" font-size="15" stroke="none" fill="#000000"><![CDATA[Bus]]></text><text x="30" y="110" font-family="sans-serif" font-size="15" stroke="none" fill="#000000"><![CDATA[with]]></text><text x="30" y="124" font-family="sans-serif" font-size="15" stroke="none" fill="#000000"><![CDATA[Selects]]></text><text x="410" y="82" font-family="sans-serif" font-size="15" stroke="none" fill="#000000"><![CDATA[Multiple]]></text><text x="410" y="96" font-family="sans-serif" font-size="15" stroke="none" fill="#000000"><![CDATA[Target]]></text><text x="389" y="110" font-family="sans-serif" font-size="15" stroke="none" fill="#000000"><![CDATA[... Busses]]></text><text x="220" y="81" font-family="sans-serif" font-size="12" stroke="none" fill="#000000"><![CDATA[WbXbc]]></text><text x="220" y="96" font-family="sans-serif" font-size="15" stroke="none" fill="#000000"><![CDATA[Splitter]]></text></g></svg>