<?xml version="1.0" encoding="UTF-8"?><svg xmlns="http://www.w3.org/2000/svg" width="860" height="560" version="1.0" shape-rendering="geometricPrecision"><defs><style type="text/css">@font-face {
  font-family: sans-serif;
}</style><filter id="shadowBlur" x="0" y="0" width="200%" height="200%"><feOffset in="SourceGraphic" dx="3.0003002" dy="3.0003002" result="offOut"></feOffset><feGaussianBlur in="offOut" stdDeviation="3"></feGaussianBlur></filter></defs><g stroke-width="1" stroke-linecap="square" stroke-linejoin="round"><rect x="0" y="0" width="860" height="560" style="fill: #ffffff"></rect><path stroke="#969696" fill="#969696" filter="url(#shadowBlur)" d="M745.0 77.0 L745.0 525.0 L35.0 525.0 L35.0 77.0 z"></path><path stroke="#969696" fill="#969696" filter="url(#shadowBlur)" d="M705.0 203.0 L705.0 273.0 L605.0 273.0 L605.0 203.0 z"></path><path stroke="#969696" fill="#969696" filter="url(#shadowBlur)" d="M705.0 301.0 L705.0 371.0 L605.0 371.0 L605.0 301.0 z"></path><path stroke="#969696" fill="#969696" filter="url(#shadowBlur)" d="M605.0 497.0 L605.0 427.0 L705.0 427.0 L705.0 497.0 z"></path><path stroke="#969696" fill="#969696" filter="url(#shadowBlur)" d="M365.0 119.0 L365.0 161.0 L245.0 161.0 L245.0 119.0 z"></path><path stroke="#969696" fill="#969696" filter="url(#shadowBlur)" d="M565.0 119.0 L565.0 161.0 L445.0 161.0 L445.0 119.0 z"></path><path stroke="#969696" fill="#969696" filter="url(#shadowBlur)" d="M65.0 119.0 L65.0 161.0 L185.0 161.0 L185.0 119.0 z"></path><path stroke="#000000" stroke-width="1.0" stroke-linecap="round" stroke-linejoin="round" fill="white" d="M745.0 77.0 L745.0 525.0 L35.0 525.0 L35.0 77.0 z"></path><path stroke="#000000" stroke-width="1.0" stroke-linecap="round" stroke-linejoin="round" fill="none" d="M535.0 455.0 L345.0 455.0 L345.0 161.0 "></path><path stroke="#000000" stroke-width="1.0" stroke-linecap="round" stroke-linejoin="round" fill="none" d="M335.0 441.0 L165.0 441.0 L165.0 161.0 "></path><path stroke="#000000" stroke-width="1.0" stroke-linecap="round" stroke-linejoin="round" fill="none" d="M545.0 161.0 L545.0 483.0 L595.0 483.0 "></path><path stroke="#000000" stroke-width="1.0" stroke-linecap="round" stroke-linejoin="round" fill="white" d="M705.0 203.0 L705.0 273.0 L605.0 273.0 L605.0 203.0 z"></path><path stroke="#000000" stroke-width="1.0" stroke-linecap="round" stroke-linejoin="round" fill="white" d="M705.0 301.0 L705.0 371.0 L605.0 371.0 L605.0 301.0 z"></path><path stroke="#000000" stroke-width="1.0" stroke-linecap="round" stroke-linejoin="round" fill="white" d="M605.0 497.0 L605.0 427.0 L705.0 427.0 L705.0 497.0 z"></path><path stroke="#000000" stroke-width="1.0" stroke-linecap="round" stroke-linejoin="round" fill="white" d="M365.0 119.0 L365.0 161.0 L245.0 161.0 L245.0 119.0 z"></path><path stroke="#000000" stroke-width="1.0" stroke-linecap="round" stroke-linejoin="round" fill="white" d="M565.0 119.0 L565.0 161.0 L445.0 161.0 L445.0 119.0 z"></path><path stroke="#000000" stroke-width="1.0" stroke-linecap="round" stroke-linejoin="round" fill="white" d="M65.0 119.0 L65.0 161.0 L185.0 161.0 L185.0 119.0 z"></path><path stroke="#000000" stroke-width="1.0" stroke-linecap="round" stroke-linejoin="round" fill="none" d="M535.0 357.0 L485.0 357.0 L485.0 161.0 "></path><path stroke="#000000" stroke-width="1.0" stroke-linecap="round" stroke-linejoin="round" fill="none" d="M285.0 161.0 L285.0 329.0 L335.0 329.0 "></path><path stroke="#000000" stroke-width="1.0" stroke-linecap="round" stroke-linejoin="round" fill="none" d="M105.0 161.0 L105.0 315.0 L155.0 315.0 "></path><path stroke="#000000" stroke-width="1.0" stroke-linecap="round" stroke-linejoin="round" fill="none" d="M475.0 259.0 L465.0 259.0 L465.0 161.0 "></path><path stroke="#000000" stroke-width="1.0" stroke-linecap="round" stroke-linejoin="round" fill="none" d="M265.0 161.0 L265.0 231.0 L275.0 231.0 "></path><path stroke="#000000" stroke-width="1.0" stroke-linecap="round" stroke-linejoin="round" fill="none" d="M85.0 161.0 L85.0 217.0 L95.0 217.0 "></path><path stroke="none" stroke-width="1.0" stroke-linecap="round" stroke-linejoin="round" fill="#000000" d="M120.0 56.0 L125.0 70.0 L130.0 56.0 z"></path><path stroke="none" stroke-width="1.0" stroke-linecap="round" stroke-linejoin="round" fill="#000000" d="M300.0 56.0 L305.0 70.0 L310.0 56.0 z"></path><path stroke="none" stroke-width="1.0" stroke-linecap="round" stroke-linejoin="round" fill="#000000" d="M500.0 56.0 L505.0 70.0 L510.0 56.0 z"></path><path stroke="none" stroke-width="1.0" stroke-linecap="round" stroke-linejoin="round" fill="#000000" d="M120.0 98.0 L125.0 112.0 L130.0 98.0 z"></path><path stroke="none" stroke-width="1.0" stroke-linecap="round" stroke-linejoin="round" fill="#000000" d="M300.0 98.0 L305.0 112.0 L310.0 98.0 z"></path><path stroke="none" stroke-width="1.0" stroke-linecap="round" stroke-linejoin="round" fill="#000000" d="M500.0 98.0 L505.0 112.0 L510.0 98.0 z"></path><path stroke="none" stroke-width="1.0" stroke-linecap="round" stroke-linejoin="round" fill="#000000" d="M590.0 210.0 L600.0 217.0 L590.0 224.0 z"></path><path stroke="none" stroke-width="1.0" stroke-linecap="round" stroke-linejoin="round" fill="#000000" d="M590.0 224.0 L600.0 231.0 L590.0 238.0 z"></path><path stroke="none" stroke-width="1.0" stroke-linecap="round" stroke-linejoin="round" fill="#000000" d="M730.0 224.0 L740.0 231.0 L730.0 238.0 z"></path><path stroke="none" stroke-width="1.0" stroke-linecap="round" stroke-linejoin="round" fill="#000000" d="M770.0 224.0 L780.0 231.0 L770.0 238.0 z"></path><path stroke="none" stroke-width="1.0" stroke-linecap="round" stroke-linejoin="round" fill="#000000" d="M590.0 252.0 L600.0 259.0 L590.0 266.0 z"></path><path stroke="none" stroke-width="1.0" stroke-linecap="round" stroke-linejoin="round" fill="#000000" d="M590.0 308.0 L600.0 315.0 L590.0 322.0 z"></path><path stroke="none" stroke-width="1.0" stroke-linecap="round" stroke-linejoin="round" fill="#000000" d="M590.0 322.0 L600.0 329.0 L590.0 336.0 z"></path><path stroke="none" stroke-width="1.0" stroke-linecap="round" stroke-linejoin="round" fill="#000000" d="M730.0 322.0 L740.0 329.0 L730.0 336.0 z"></path><path stroke="none" stroke-width="1.0" stroke-linecap="round" stroke-linejoin="round" fill="#000000" d="M770.0 322.0 L780.0 329.0 L770.0 336.0 z"></path><path stroke="none" stroke-width="1.0" stroke-linecap="round" stroke-linejoin="round" fill="#000000" d="M590.0 350.0 L600.0 357.0 L590.0 364.0 z"></path><path stroke="none" stroke-width="1.0" stroke-linecap="round" stroke-linejoin="round" fill="#000000" d="M590.0 434.0 L600.0 441.0 L590.0 448.0 z"></path><path stroke="none" stroke-width="1.0" stroke-linecap="round" stroke-linejoin="round" fill="#000000" d="M590.0 448.0 L600.0 455.0 L590.0 462.0 z"></path><path stroke="none" stroke-width="1.0" stroke-linecap="round" stroke-linejoin="round" fill="#000000" d="M730.0 448.0 L740.0 455.0 L730.0 462.0 z"></path><path stroke="none" stroke-width="1.0" stroke-linecap="round" stroke-linejoin="round" fill="#000000" d="M770.0 448.0 L780.0 455.0 L770.0 462.0 z"></path><path stroke="none" stroke-width="1.0" stroke-linecap="round" stroke-linejoin="round" fill="#000000" d="M590.0 476.0 L600.0 483.0 L590.0 490.0 z"></path><path stroke="#000000" stroke-width="1.0" stroke-linecap="round" stroke-linejoin="round" fill="none" d="M470.0 217.0 L479.0 217.0 "></path><path stroke="#000000" stroke-width="1.0" stroke-linecap="round" stroke-linejoin="round" fill="none" d="M470.0 231.0 L479.0 231.0 "></path><path stroke="#000000" stroke-width="1.0" stroke-linecap="round" stroke-linejoin="round" fill="none" d="M505.0 42.0 L505.0 63.0 "></path><path stroke="#000000" stroke-width="1.0" stroke-linecap="round" stroke-linejoin="round" fill="none" d="M505.0 84.0 L505.0 105.0 "></path><path stroke="#000000" stroke-width="1.0" stroke-linecap="round" stroke-linejoin="round" fill="none" d="M125.0 42.0 L125.0 63.0 "></path><path stroke="#000000" stroke-width="1.0" stroke-linecap="round" stroke-linejoin="round" fill="none" d="M125.0 84.0 L125.0 105.0 "></path><path stroke="#000000" stroke-width="1.0" stroke-linecap="round" stroke-linejoin="round" fill="none" d="M270.0 217.0 L279.0 217.0 "></path><path stroke="#000000" stroke-width="1.0" stroke-linecap="round" stroke-linejoin="round" fill="none" d="M305.0 42.0 L305.0 63.0 "></path><path stroke="#000000" stroke-width="1.0" stroke-linecap="round" stroke-linejoin="round" fill="none" d="M305.0 84.0 L305.0 105.0 "></path><path stroke="#000000" stroke-width="1.0" stroke-linecap="round" stroke-linejoin="round" fill="none" d="M475.0 315.0 L355.0 315.0 "></path><path stroke="#000000" stroke-width="1.0" stroke-linecap="round" stroke-linejoin="round" fill="none" d="M475.0 329.0 L355.0 329.0 "></path><path stroke="#000000" stroke-width="1.0" stroke-linecap="round" stroke-linejoin="round" fill="none" d="M455.0 217.0 L355.0 217.0 "></path><path stroke="#000000" stroke-width="1.0" stroke-linecap="round" stroke-linejoin="round" fill="none" d="M455.0 231.0 L355.0 231.0 "></path><path stroke="#000000" stroke-width="1.0" stroke-linecap="round" stroke-linejoin="round" fill="none" d="M535.0 441.0 L355.0 441.0 "></path><path stroke="#000000" stroke-width="1.0" stroke-linecap="round" stroke-linejoin="round" fill="none" d="M535.0 217.0 L495.0 217.0 "></path><path stroke="#000000" stroke-width="1.0" stroke-linecap="round" stroke-linejoin="round" fill="none" d="M535.0 231.0 L495.0 231.0 "></path><path stroke="#000000" stroke-width="1.0" stroke-linecap="round" stroke-linejoin="round" fill="none" d="M495.0 259.0 L535.0 259.0 "></path><path stroke="#000000" stroke-width="1.0" stroke-linecap="round" stroke-linejoin="round" fill="none" d="M535.0 315.0 L495.0 315.0 "></path><path stroke="#000000" stroke-width="1.0" stroke-linecap="round" stroke-linejoin="round" fill="none" d="M535.0 329.0 L495.0 329.0 "></path><path stroke="#000000" stroke-width="1.0" stroke-linecap="round" stroke-linejoin="round" fill="none" d="M595.0 217.0 L555.0 217.0 "></path><path stroke="#000000" stroke-width="1.0" stroke-linecap="round" stroke-linejoin="round" fill="none" d="M595.0 231.0 L555.0 231.0 "></path><path stroke="#000000" stroke-width="1.0" stroke-linecap="round" stroke-linejoin="round" fill="none" d="M155.0 217.0 L115.0 217.0 "></path><path stroke="#000000" stroke-width="1.0" stroke-linecap="round" stroke-linejoin="round" fill="none" d="M595.0 259.0 L555.0 259.0 "></path><path stroke="#000000" stroke-width="1.0" stroke-linecap="round" stroke-linejoin="round" fill="none" d="M595.0 315.0 L555.0 315.0 "></path><path stroke="#000000" stroke-width="1.0" stroke-linecap="round" stroke-linejoin="round" fill="none" d="M555.0 329.0 L595.0 329.0 "></path><path stroke="#000000" stroke-width="1.0" stroke-linecap="round" stroke-linejoin="round" fill="none" d="M555.0 357.0 L595.0 357.0 "></path><path stroke="#000000" stroke-width="1.0" stroke-linecap="round" stroke-linejoin="round" fill="none" d="M595.0 441.0 L555.0 441.0 "></path><path stroke="#000000" stroke-width="1.0" stroke-linecap="round" stroke-linejoin="round" fill="none" d="M595.0 455.0 L555.0 455.0 "></path><path stroke="#000000" stroke-width="1.0" stroke-linecap="round" stroke-linejoin="round" fill="none" d="M255.0 217.0 L175.0 217.0 "></path><path stroke="#000000" stroke-width="1.0" stroke-linecap="round" stroke-linejoin="round" fill="none" d="M175.0 315.0 L275.0 315.0 "></path><path stroke="#000000" stroke-width="1.0" stroke-linecap="round" stroke-linejoin="round" fill="none" d="M295.0 217.0 L335.0 217.0 "></path><path stroke="#000000" stroke-width="1.0" stroke-linecap="round" stroke-linejoin="round" fill="none" d="M325.0 231.0 L295.0 231.0 "></path><path stroke="#000000" stroke-width="1.0" stroke-linecap="round" stroke-linejoin="round" fill="none" d="M335.0 315.0 L295.0 315.0 "></path><path stroke="#000000" stroke-width="1.0" stroke-linecap="round" stroke-linejoin="round" fill="none" d="M775.0 231.0 L755.0 231.0 "></path><path stroke="#000000" stroke-width="1.0" stroke-linecap="round" stroke-linejoin="round" fill="none" d="M775.0 329.0 L755.0 329.0 "></path><path stroke="#000000" stroke-width="1.0" stroke-linecap="round" stroke-linejoin="round" fill="none" d="M775.0 455.0 L755.0 455.0 "></path><path stroke="#000000" stroke-width="1.0" stroke-linecap="round" stroke-linejoin="round" fill="none" d="M735.0 231.0 L705.0 231.0 "></path><path stroke="#000000" stroke-width="1.0" stroke-linecap="round" stroke-linejoin="round" fill="none" d="M705.0 329.0 L735.0 329.0 "></path><path stroke="#000000" stroke-width="1.0" stroke-linecap="round" stroke-linejoin="round" fill="none" d="M735.0 455.0 L705.0 455.0 "></path><text x="620" y="459" font-family="sans-serif" font-size="12" stroke="none" fill="#000000"><![CDATA[WbXbc]]></text><text x="620" y="474" font-family="sans-serif" font-size="15" stroke="none" fill="#000000"><![CDATA[Arbiter]]></text><text x="273" y="40" font-family="sans-serif" font-size="15" stroke="none" fill="#000000"><![CDATA[Initiator]]></text><text x="70" y="137" font-family="sans-serif" font-size="12" stroke="none" fill="#000000"><![CDATA[WbXbc]]></text><text x="70" y="152" font-family="sans-serif" font-size="15" stroke="none" fill="#000000"><![CDATA[Distributor]]></text><text x="391" y="152" font-family="sans-serif" font-size="15" stroke="none" fill="#000000"><![CDATA[. . .]]></text><text x="783" y="334" font-family="sans-serif" font-size="15" stroke="none" fill="#000000"><![CDATA[Target]]></text><text x="566" y="474" font-family="sans-serif" font-size="15" stroke="none" fill="#000000"><![CDATA[...]]></text><text x="250" y="137" font-family="sans-serif" font-size="12" stroke="none" fill="#000000"><![CDATA[WbXbc]]></text><text x="250" y="152" font-family="sans-serif" font-size="15" stroke="none" fill="#000000"><![CDATA[Distributor]]></text><text x="791" y="404" font-family="sans-serif" font-size="15" stroke="none" fill="#000000"><![CDATA[. . .]]></text><text x="620" y="235" font-family="sans-serif" font-size="12" stroke="none" fill="#000000"><![CDATA[WbXbc]]></text><text x="620" y="250" font-family="sans-serif" font-size="15" stroke="none" fill="#000000"><![CDATA[Arbiter]]></text><text x="783" y="460" font-family="sans-serif" font-size="15" stroke="none" fill="#000000"><![CDATA[Target]]></text><text x="483" y="40" font-family="sans-serif" font-size="15" stroke="none" fill="#000000"><![CDATA[Initiator]]></text><text x="620" y="333" font-family="sans-serif" font-size="12" stroke="none" fill="#000000"><![CDATA[WbXbc]]></text><text x="620" y="348" font-family="sans-serif" font-size="15" stroke="none" fill="#000000"><![CDATA[Arbiter]]></text><text x="566" y="250" font-family="sans-serif" font-size="15" stroke="none" fill="#000000"><![CDATA[...]]></text><text x="450" y="137" font-family="sans-serif" font-size="12" stroke="none" fill="#000000"><![CDATA[WbXbc]]></text><text x="450" y="152" font-family="sans-serif" font-size="15" stroke="none" fill="#000000"><![CDATA[Distributor]]></text><text x="93" y="40" font-family="sans-serif" font-size="15" stroke="none" fill="#000000"><![CDATA[Initiator]]></text><text x="506" y="180" font-family="sans-serif" font-size="15" stroke="none" fill="#000000"><![CDATA[...]]></text><text x="641" y="404" font-family="sans-serif" font-size="15" stroke="none" fill="#000000"><![CDATA[. . .]]></text><text x="783" y="236" font-family="sans-serif" font-size="15" stroke="none" fill="#000000"><![CDATA[Target]]></text><text x="566" y="348" font-family="sans-serif" font-size="15" stroke="none" fill="#000000"><![CDATA[...]]></text><text x="90" y="487" font-family="sans-serif" font-size="12" stroke="none" fill="#000000"><![CDATA[WbXbc]]></text><text x="90" y="502" font-family="sans-serif" font-size="15" stroke="none" fill="#000000"><![CDATA[Xbar]]></text><text x="381" y="54" font-family="sans-serif" font-size="15" stroke="none" fill="#000000"><![CDATA[. . .]]></text><text x="126" y="180" font-family="sans-serif" font-size="15" stroke="none" fill="#000000"><![CDATA[...]]></text><text x="306" y="180" font-family="sans-serif" font-size="15" stroke="none" fill="#000000"><![CDATA[...]]></text></g></svg>