<?xml version="1.0" encoding="UTF-8"?><svg xmlns="http://www.w3.org/2000/svg" width="1110" height="266" version="1.0" shape-rendering="geometricPrecision"><defs><style type="text/css">@font-face {
  font-family: sans-serif;
}</style><filter id="shadowBlur" x="0" y="0" width="200%" height="200%"><feOffset in="SourceGraphic" dx="3.0003002" dy="3.0003002" result="offOut"></feOffset><feGaussianBlur in="offOut" stdDeviation="3"></feGaussianBlur></filter></defs><g stroke-width="1" stroke-linecap="square" stroke-linejoin="round"><rect x="0" y="0" width="1110" height="266" style="fill: #ffffff"></rect><path stroke="#969696" fill="#969696" filter="url(#shadowBlur)" d="M155.0 35.0 L155.0 231.0 L955.0 231.0 L955.0 35.0 z"></path><path stroke="#969696" fill="#969696" filter="url(#shadowBlur)" d="M705.0 91.0 L705.0 203.0 L905.0 203.0 L905.0 91.0 z"></path><path stroke="#969696" fill="#969696" filter="url(#shadowBlur)" d="M405.0 91.0 L405.0 203.0 L205.0 203.0 L205.0 91.0 z"></path><path stroke="#969696" fill="#969696" filter="url(#shadowBlur)" d="M455.0 203.0 L655.0 203.0 L655.0 91.0 L455.0 91.0 z"></path><path stroke="#000000" stroke-width="1.0" stroke-linecap="round" stroke-linejoin="round" fill="white" d="M155.0 35.0 L155.0 231.0 L955.0 231.0 L955.0 35.0 z"></path><path stroke="#000000" stroke-width="1.0" stroke-linecap="round" stroke-linejoin="round" fill="white" d="M705.0 91.0 L705.0 203.0 L905.0 203.0 L905.0 91.0 z"></path><path stroke="#000000" stroke-width="1.0" stroke-linecap="round" stroke-linejoin="round" fill="white" d="M405.0 91.0 L405.0 203.0 L205.0 203.0 L205.0 91.0 z"></path><path stroke="#000000" stroke-width="1.0" stroke-linecap="round" stroke-linejoin="round" fill="white" d="M455.0 203.0 L655.0 203.0 L655.0 91.0 L455.0 91.0 z"></path><path stroke="none" stroke-width="1.0" stroke-linecap="round" stroke-linejoin="round" fill="#000000" d="M140.0 98.0 L150.0 105.0 L140.0 112.0 z"></path><path stroke="none" stroke-width="1.0" stroke-linecap="round" stroke-linejoin="round" fill="#000000" d="M190.0 98.0 L200.0 105.0 L190.0 112.0 z"></path><path stroke="none" stroke-width="1.0" stroke-linecap="round" stroke-linejoin="round" fill="#000000" d="M940.0 98.0 L950.0 105.0 L940.0 112.0 z"></path><path stroke="none" stroke-width="1.0" stroke-linecap="round" stroke-linejoin="round" fill="#000000" d="M990.0 98.0 L1000.0 105.0 L990.0 112.0 z"></path><path stroke="none" stroke-width="1.0" stroke-linecap="round" stroke-linejoin="round" fill="#000000" d="M940.0 126.0 L950.0 133.0 L940.0 140.0 z"></path><path stroke="none" stroke-width="1.0" stroke-linecap="round" stroke-linejoin="round" fill="#000000" d="M990.0 126.0 L1000.0 133.0 L990.0 140.0 z"></path><path stroke="none" stroke-width="1.0" stroke-linecap="round" stroke-linejoin="round" fill="#000000" d="M440.0 140.0 L450.0 147.0 L440.0 154.0 z"></path><path stroke="none" stroke-width="1.0" stroke-linecap="round" stroke-linejoin="round" fill="#000000" d="M690.0 140.0 L700.0 147.0 L690.0 154.0 z"></path><path stroke="none" stroke-width="1.0" stroke-linecap="round" stroke-linejoin="round" fill="#000000" d="M140.0 154.0 L150.0 161.0 L140.0 168.0 z"></path><path stroke="none" stroke-width="1.0" stroke-linecap="round" stroke-linejoin="round" fill="#000000" d="M190.0 154.0 L200.0 161.0 L190.0 168.0 z"></path><path stroke="none" stroke-width="1.0" stroke-linecap="round" stroke-linejoin="round" fill="#000000" d="M940.0 182.0 L950.0 189.0 L940.0 196.0 z"></path><path stroke="none" stroke-width="1.0" stroke-linecap="round" stroke-linejoin="round" fill="#000000" d="M990.0 182.0 L1000.0 189.0 L990.0 196.0 z"></path><path stroke="#000000" stroke-width="1.0" stroke-linecap="round" stroke-linejoin="round" fill="none" d="M995.0 105.0 L965.0 105.0 "></path><path stroke="#000000" stroke-width="1.0" stroke-linecap="round" stroke-linejoin="round" fill="none" d="M995.0 133.0 L965.0 133.0 "></path><path stroke="#000000" stroke-width="1.0" stroke-linecap="round" stroke-linejoin="round" fill="none" d="M995.0 189.0 L965.0 189.0 "></path><path stroke="#000000" stroke-width="1.0" stroke-linecap="round" stroke-linejoin="round" fill="none" d="M145.0 105.0 L115.0 105.0 "></path><path stroke="#000000" stroke-width="1.0" stroke-linecap="round" stroke-linejoin="round" fill="none" d="M115.0 161.0 L145.0 161.0 "></path><path stroke="#000000" stroke-width="1.0" stroke-linecap="round" stroke-linejoin="round" fill="none" d="M195.0 105.0 L165.0 105.0 "></path><path stroke="#000000" stroke-width="1.0" stroke-linecap="round" stroke-linejoin="round" fill="none" d="M195.0 161.0 L165.0 161.0 "></path><path stroke="#000000" stroke-width="1.0" stroke-linecap="round" stroke-linejoin="round" fill="none" d="M945.0 105.0 L905.0 105.0 "></path><path stroke="#000000" stroke-width="1.0" stroke-linecap="round" stroke-linejoin="round" fill="none" d="M945.0 133.0 L905.0 133.0 "></path><path stroke="#000000" stroke-width="1.0" stroke-linecap="round" stroke-linejoin="round" fill="none" d="M945.0 189.0 L905.0 189.0 "></path><path stroke="#000000" stroke-width="1.0" stroke-linecap="round" stroke-linejoin="round" fill="none" d="M405.0 147.0 L445.0 147.0 "></path><path stroke="#000000" stroke-width="1.0" stroke-linecap="round" stroke-linejoin="round" fill="none" d="M695.0 147.0 L655.0 147.0 "></path><text x="32" y="110" font-family="sans-serif" font-size="15" stroke="none" fill="#000000"><![CDATA[Address]]></text><text x="33" y="124" font-family="sans-serif" font-size="15" stroke="none" fill="#000000"><![CDATA[Regions]]></text><text x="30" y="152" font-family="sans-serif" font-size="15" stroke="none" fill="#000000"><![CDATA[Initiator]]></text><text x="30" y="166" font-family="sans-serif" font-size="15" stroke="none" fill="#000000"><![CDATA[Bus]]></text><text x="1010" y="138" font-family="sans-serif" font-size="15" stroke="none" fill="#000000"><![CDATA[Multiple]]></text><text x="1010" y="152" font-family="sans-serif" font-size="15" stroke="none" fill="#000000"><![CDATA[Target]]></text><text x="989" y="166" font-family="sans-serif" font-size="15" stroke="none" fill="#000000"><![CDATA[... Busses]]></text><text x="270" y="137" font-family="sans-serif" font-size="12" stroke="none" fill="#000000"><![CDATA[WbXbc]]></text><text x="270" y="152" font-family="sans-serif" font-size="15" stroke="none" fill="#000000"><![CDATA[Address]]></text><text x="270" y="166" font-family="sans-serif" font-size="15" stroke="none" fill="#000000"><![CDATA[Decoder]]></text><text x="480" y="68" font-family="sans-serif" font-size="15" stroke="none" fill="#000000"><![CDATA[WbXbc Distributor]]></text><text x="510" y="137" font-family="sans-serif" font-size="12" stroke="none" fill="#000000"><![CDATA[WbXbc]]></text><text x="510" y="152" font-family="sans-serif" font-size="15" stroke="none" fill="#000000"><![CDATA[Error]]></text><text x="510" y="166" font-family="sans-serif" font-size="15" stroke="none" fill="#000000"><![CDATA[Generator]]></text><text x="770" y="137" font-family="sans-serif" font-size="12" stroke="none" fill="#000000"><![CDATA[WbXbc]]></text><text x="770" y="152" font-family="sans-serif" font-size="15" stroke="none" fill="#000000"><![CDATA[Splitter]]></text><text x="926" y="166" font-family="sans-serif" font-size="15" stroke="none" fill="#000000"><![CDATA[...]]></text></g></svg>